<mxfile host="d25c75c7-ce4c-41ff-85cc-3efaed1564ab" modified="2020-09-10T09:54:11.693Z" agent="5.0 (Windows NT 10.0; Win64; x64) AppleWebKit/537.36 (KHTML, like Gecko) Code/1.48.2 Chrome/78.0.3904.130 Electron/7.3.2 Safari/537.36" etag="8OLD7Y1XB2-fZSZqd0C8" version="13.1.3">
    <diagram id="TfCUmbNBxeJcVQRQtppO" name="Page-1">
        <mxGraphModel dx="1405" dy="1516" grid="1" gridSize="10" guides="1" tooltips="1" connect="1" arrows="1" fold="1" page="1" pageScale="1" pageWidth="1169" pageHeight="827" math="0" shadow="0">
            <root>
                <mxCell id="0"/>
                <mxCell id="1" parent="0"/>
                <mxCell id="cSdXtgX57WLTUIetgUi0-52" style="edgeStyle=orthogonalEdgeStyle;rounded=0;orthogonalLoop=1;jettySize=auto;html=1;entryX=0;entryY=0.5;entryDx=0;entryDy=0;dashed=1;startArrow=none;startFill=0;startSize=12;endArrow=classic;endFill=0;endSize=12;strokeWidth=1;" parent="1" source="cSdXtgX57WLTUIetgUi0-17" target="cSdXtgX57WLTUIetgUi0-51" edge="1">
                    <mxGeometry relative="1" as="geometry"/>
                </mxCell>
                <mxCell id="cSdXtgX57WLTUIetgUi0-53" value="creates" style="edgeLabel;html=1;align=center;verticalAlign=middle;resizable=0;points=[];" parent="cSdXtgX57WLTUIetgUi0-52" vertex="1" connectable="0">
                    <mxGeometry x="-0.2099" y="-1" relative="1" as="geometry">
                        <mxPoint x="-0.33000000000000007" y="1" as="offset"/>
                    </mxGeometry>
                </mxCell>
                <mxCell id="cSdXtgX57WLTUIetgUi0-58" style="edgeStyle=orthogonalEdgeStyle;rounded=0;orthogonalLoop=1;jettySize=auto;html=1;startArrow=none;startFill=0;startSize=12;endArrow=diamond;endFill=1;endSize=12;strokeWidth=1;exitX=1;exitY=0.5;exitDx=0;exitDy=0;" parent="1" source="lE66irbnl2GG9pVaWtyq-3" target="cSdXtgX57WLTUIetgUi0-36" edge="1">
                    <mxGeometry relative="1" as="geometry">
                        <Array as="points">
                            <mxPoint x="540" y="-741"/>
                            <mxPoint x="540" y="-730"/>
                        </Array>
                        <mxPoint x="460" y="-699.9999999999999" as="sourcePoint"/>
                        <mxPoint x="580" y="-740" as="targetPoint"/>
                    </mxGeometry>
                </mxCell>
                <mxCell id="cSdXtgX57WLTUIetgUi0-59" value="2..*" style="edgeLabel;html=1;align=center;verticalAlign=middle;resizable=0;points=[];" parent="cSdXtgX57WLTUIetgUi0-58" vertex="1" connectable="0">
                    <mxGeometry x="-0.792" y="1" relative="1" as="geometry">
                        <mxPoint as="offset"/>
                    </mxGeometry>
                </mxCell>
                <mxCell id="cSdXtgX57WLTUIetgUi0-6" value="&lt;p style=&quot;margin: 0px ; margin-top: 4px ; text-align: center&quot;&gt;&lt;i&gt;&amp;lt;&amp;lt;Interface&amp;gt;&amp;gt;&lt;/i&gt;&lt;br&gt;&lt;b&gt;Events&lt;/b&gt;&lt;/p&gt;&lt;hr size=&quot;1&quot;&gt;&lt;p style=&quot;margin: 0px ; margin-left: 4px&quot;&gt;+ point: Point&lt;/p&gt;&lt;p style=&quot;margin: 0px ; margin-left: 4px&quot;&gt;+ operation: EventsOperations&lt;/p&gt;&lt;hr size=&quot;1&quot;&gt;&lt;p style=&quot;margin: 0px ; margin-left: 4px&quot;&gt;+ __lt__(Event): bool&lt;br&gt;+ &lt;i&gt;handle_event(): void&lt;/i&gt;&lt;/p&gt;" style="verticalAlign=top;align=left;overflow=fill;fontSize=12;fontFamily=Helvetica;html=1;" parent="1" vertex="1">
                    <mxGeometry x="890" y="-373" width="170" height="120" as="geometry"/>
                </mxCell>
                <mxCell id="cSdXtgX57WLTUIetgUi0-42" style="edgeStyle=orthogonalEdgeStyle;rounded=0;orthogonalLoop=1;jettySize=auto;html=1;entryX=0.5;entryY=1;entryDx=0;entryDy=0;endArrow=block;endFill=0;strokeWidth=1;endSize=12;" parent="1" source="cSdXtgX57WLTUIetgUi0-11" target="cSdXtgX57WLTUIetgUi0-6" edge="1">
                    <mxGeometry relative="1" as="geometry"/>
                </mxCell>
                <mxCell id="cSdXtgX57WLTUIetgUi0-41" style="edgeStyle=orthogonalEdgeStyle;rounded=0;orthogonalLoop=1;jettySize=auto;html=1;endArrow=block;endFill=0;strokeWidth=1;endSize=12;entryX=0.2;entryY=1;entryDx=0;entryDy=0;entryPerimeter=0;" parent="1" source="cSdXtgX57WLTUIetgUi0-7" target="cSdXtgX57WLTUIetgUi0-6" edge="1">
                    <mxGeometry relative="1" as="geometry">
                        <mxPoint x="804" y="-253" as="targetPoint"/>
                        <Array as="points">
                            <mxPoint x="680" y="-223"/>
                            <mxPoint x="924" y="-223"/>
                        </Array>
                    </mxGeometry>
                </mxCell>
                <mxCell id="cSdXtgX57WLTUIetgUi0-43" style="edgeStyle=orthogonalEdgeStyle;rounded=0;orthogonalLoop=1;jettySize=auto;html=1;endArrow=block;endFill=0;entryX=0.827;entryY=0.992;entryDx=0;entryDy=0;entryPerimeter=0;strokeWidth=1;endSize=12;" parent="1" source="cSdXtgX57WLTUIetgUi0-14" target="cSdXtgX57WLTUIetgUi0-6" edge="1">
                    <mxGeometry relative="1" as="geometry">
                        <mxPoint x="910" y="-260" as="targetPoint"/>
                        <Array as="points">
                            <mxPoint x="1031" y="-240"/>
                            <mxPoint x="1031" y="-240"/>
                        </Array>
                    </mxGeometry>
                </mxCell>
                <mxCell id="cSdXtgX57WLTUIetgUi0-30" style="edgeStyle=orthogonalEdgeStyle;rounded=0;orthogonalLoop=1;jettySize=auto;html=1;entryX=1.007;entryY=0.377;entryDx=0;entryDy=0;entryPerimeter=0;endArrow=none;endFill=0;startArrow=diamond;startFill=1;endSize=12;startSize=12;" parent="1" source="cSdXtgX57WLTUIetgUi0-6" target="cSdXtgX57WLTUIetgUi0-5" edge="1">
                    <mxGeometry relative="1" as="geometry"/>
                </mxCell>
                <mxCell id="cSdXtgX57WLTUIetgUi0-44" value="1" style="edgeLabel;html=1;align=center;verticalAlign=middle;resizable=0;points=[];" parent="cSdXtgX57WLTUIetgUi0-30" vertex="1" connectable="0">
                    <mxGeometry x="0.8477" y="-2" relative="1" as="geometry">
                        <mxPoint as="offset"/>
                    </mxGeometry>
                </mxCell>
                <mxCell id="cSdXtgX57WLTUIetgUi0-51" value="" style="whiteSpace=wrap;html=1;fillColor=none;rounded=1;" parent="1" vertex="1">
                    <mxGeometry x="560" y="-390" width="570" height="280" as="geometry"/>
                </mxCell>
                <mxCell id="cSdXtgX57WLTUIetgUi0-71" style="edgeStyle=orthogonalEdgeStyle;rounded=0;orthogonalLoop=1;jettySize=auto;html=1;entryX=0;entryY=0.25;entryDx=0;entryDy=0;startArrow=none;startFill=0;startSize=12;endArrow=diamond;endFill=1;endSize=12;strokeWidth=1;" parent="1" source="cSdXtgX57WLTUIetgUi0-61" target="cSdXtgX57WLTUIetgUi0-17" edge="1">
                    <mxGeometry relative="1" as="geometry">
                        <Array as="points">
                            <mxPoint x="250" y="-440"/>
                            <mxPoint x="250" y="-355"/>
                        </Array>
                    </mxGeometry>
                </mxCell>
                <mxCell id="cSdXtgX57WLTUIetgUi0-72" value="1" style="edgeLabel;html=1;align=center;verticalAlign=middle;resizable=0;points=[];" parent="cSdXtgX57WLTUIetgUi0-71" vertex="1" connectable="0">
                    <mxGeometry x="-0.9532" relative="1" as="geometry">
                        <mxPoint x="6.36" as="offset"/>
                    </mxGeometry>
                </mxCell>
                <mxCell id="cSdXtgX57WLTUIetgUi0-74" style="edgeStyle=orthogonalEdgeStyle;rounded=0;orthogonalLoop=1;jettySize=auto;html=1;entryX=0;entryY=0.5;entryDx=0;entryDy=0;startArrow=none;startFill=0;startSize=12;endArrow=diamond;endFill=1;endSize=12;strokeWidth=1;" parent="1" source="cSdXtgX57WLTUIetgUi0-36" target="cSdXtgX57WLTUIetgUi0-32" edge="1">
                    <mxGeometry relative="1" as="geometry"/>
                </mxCell>
                <mxCell id="cSdXtgX57WLTUIetgUi0-75" value="2" style="edgeLabel;html=1;align=center;verticalAlign=middle;resizable=0;points=[];" parent="cSdXtgX57WLTUIetgUi0-74" vertex="1" connectable="0">
                    <mxGeometry x="-0.7273" y="-2" relative="1" as="geometry">
                        <mxPoint y="-2" as="offset"/>
                    </mxGeometry>
                </mxCell>
                <mxCell id="cSdXtgX57WLTUIetgUi0-60" value="EventsQueue" style="swimlane;fontStyle=1;align=center;verticalAlign=top;childLayout=stackLayout;horizontal=1;startSize=26;horizontalStack=0;resizeParent=1;resizeParentMax=0;resizeLast=0;collapsible=1;marginBottom=0;fillColor=none;" parent="1" vertex="1">
                    <mxGeometry x="40" y="-520" width="190" height="130" as="geometry"/>
                </mxCell>
                <mxCell id="cSdXtgX57WLTUIetgUi0-61" value="+ queue: &lt;Event&gt;&#10;+ status: &lt;Line&gt;&#10;+ lines_list: &lt;Line&gt;&#10;+ events_factory: EventsFactory&#10;" style="text;strokeColor=none;fillColor=none;align=left;verticalAlign=top;spacingLeft=4;spacingRight=4;overflow=hidden;rotatable=0;points=[[0,0.5],[1,0.5]];portConstraint=eastwest;" parent="cSdXtgX57WLTUIetgUi0-60" vertex="1">
                    <mxGeometry y="26" width="190" height="64" as="geometry"/>
                </mxCell>
                <mxCell id="cSdXtgX57WLTUIetgUi0-62" value="" style="line;strokeWidth=1;fillColor=none;align=left;verticalAlign=middle;spacingTop=-1;spacingLeft=3;spacingRight=3;rotatable=0;labelPosition=right;points=[];portConstraint=eastwest;" parent="cSdXtgX57WLTUIetgUi0-60" vertex="1">
                    <mxGeometry y="90" width="190" height="8" as="geometry"/>
                </mxCell>
                <mxCell id="cSdXtgX57WLTUIetgUi0-63" value="+ initialize(): void" style="text;strokeColor=none;fillColor=none;align=left;verticalAlign=top;spacingLeft=4;spacingRight=4;overflow=hidden;rotatable=0;points=[[0,0.5],[1,0.5]];portConstraint=eastwest;" parent="cSdXtgX57WLTUIetgUi0-60" vertex="1">
                    <mxGeometry y="98" width="190" height="32" as="geometry"/>
                </mxCell>
                <mxCell id="cSdXtgX57WLTUIetgUi0-11" value="EndPoint" style="swimlane;fontStyle=1;align=center;verticalAlign=top;childLayout=stackLayout;horizontal=1;startSize=26;horizontalStack=0;resizeParent=1;resizeParentMax=0;resizeLast=0;collapsible=1;marginBottom=0;" parent="1" vertex="1">
                    <mxGeometry x="775" y="-183" width="160" height="34" as="geometry"/>
                </mxCell>
                <mxCell id="cSdXtgX57WLTUIetgUi0-12" value="" style="line;strokeWidth=1;fillColor=none;align=left;verticalAlign=middle;spacingTop=-1;spacingLeft=3;spacingRight=3;rotatable=0;labelPosition=right;points=[];portConstraint=eastwest;" parent="cSdXtgX57WLTUIetgUi0-11" vertex="1">
                    <mxGeometry y="26" width="160" height="8" as="geometry"/>
                </mxCell>
                <mxCell id="cSdXtgX57WLTUIetgUi0-7" value="StartPoint" style="swimlane;fontStyle=1;align=center;verticalAlign=top;childLayout=stackLayout;horizontal=1;startSize=26;horizontalStack=0;resizeParent=1;resizeParentMax=0;resizeLast=0;collapsible=1;marginBottom=0;" parent="1" vertex="1">
                    <mxGeometry x="600" y="-183" width="160" height="34" as="geometry"/>
                </mxCell>
                <mxCell id="cSdXtgX57WLTUIetgUi0-9" value="" style="line;strokeWidth=1;fillColor=none;align=left;verticalAlign=middle;spacingTop=-1;spacingLeft=3;spacingRight=3;rotatable=0;labelPosition=right;points=[];portConstraint=eastwest;" parent="cSdXtgX57WLTUIetgUi0-7" vertex="1">
                    <mxGeometry y="26" width="160" height="8" as="geometry"/>
                </mxCell>
                <mxCell id="cSdXtgX57WLTUIetgUi0-14" value="Intersection" style="swimlane;fontStyle=1;align=center;verticalAlign=top;childLayout=stackLayout;horizontal=1;startSize=26;horizontalStack=0;resizeParent=1;resizeParentMax=0;resizeLast=0;collapsible=1;marginBottom=0;" parent="1" vertex="1">
                    <mxGeometry x="950" y="-183" width="160" height="34" as="geometry"/>
                </mxCell>
                <mxCell id="cSdXtgX57WLTUIetgUi0-15" value="" style="line;strokeWidth=1;fillColor=none;align=left;verticalAlign=middle;spacingTop=-1;spacingLeft=3;spacingRight=3;rotatable=0;labelPosition=right;points=[];portConstraint=eastwest;" parent="cSdXtgX57WLTUIetgUi0-14" vertex="1">
                    <mxGeometry y="26" width="160" height="8" as="geometry"/>
                </mxCell>
                <mxCell id="cSdXtgX57WLTUIetgUi0-2" value="EventsOperations" style="swimlane;fontStyle=1;align=center;verticalAlign=top;childLayout=stackLayout;horizontal=1;startSize=26;horizontalStack=0;resizeParent=1;resizeParentMax=0;resizeLast=0;collapsible=1;marginBottom=0;" parent="1" vertex="1">
                    <mxGeometry x="595" y="-370" width="230" height="80" as="geometry"/>
                </mxCell>
                <mxCell id="cSdXtgX57WLTUIetgUi0-4" value="" style="line;strokeWidth=1;fillColor=none;align=left;verticalAlign=middle;spacingTop=-1;spacingLeft=3;spacingRight=3;rotatable=0;labelPosition=right;points=[];portConstraint=eastwest;" parent="cSdXtgX57WLTUIetgUi0-2" vertex="1">
                    <mxGeometry y="26" width="230" height="8" as="geometry"/>
                </mxCell>
                <mxCell id="cSdXtgX57WLTUIetgUi0-5" value="+ add_line_to_status(Line, Status): void&#10;+ check_which_line(Point): int" style="text;strokeColor=none;fillColor=none;align=left;verticalAlign=top;spacingLeft=4;spacingRight=4;overflow=hidden;rotatable=0;points=[[0,0.5],[1,0.5]];portConstraint=eastwest;" parent="cSdXtgX57WLTUIetgUi0-2" vertex="1">
                    <mxGeometry y="34" width="230" height="46" as="geometry"/>
                </mxCell>
                <mxCell id="cSdXtgX57WLTUIetgUi0-17" value="EventsFactory" style="swimlane;fontStyle=1;align=center;verticalAlign=top;childLayout=stackLayout;horizontal=1;startSize=26;horizontalStack=0;resizeParent=1;resizeParentMax=0;resizeLast=0;collapsible=1;marginBottom=0;" parent="1" vertex="1">
                    <mxGeometry x="280" y="-370" width="190" height="60" as="geometry"/>
                </mxCell>
                <mxCell id="cSdXtgX57WLTUIetgUi0-18" value="" style="line;strokeWidth=1;fillColor=none;align=left;verticalAlign=middle;spacingTop=-1;spacingLeft=3;spacingRight=3;rotatable=0;labelPosition=right;points=[];portConstraint=eastwest;" parent="cSdXtgX57WLTUIetgUi0-17" vertex="1">
                    <mxGeometry y="26" width="190" height="8" as="geometry"/>
                </mxCell>
                <mxCell id="cSdXtgX57WLTUIetgUi0-19" value="+ create_event(str, Point): Event" style="text;strokeColor=none;fillColor=none;align=left;verticalAlign=top;spacingLeft=4;spacingRight=4;overflow=hidden;rotatable=0;points=[[0,0.5],[1,0.5]];portConstraint=eastwest;fontStyle=0;" parent="cSdXtgX57WLTUIetgUi0-17" vertex="1">
                    <mxGeometry y="34" width="190" height="26" as="geometry"/>
                </mxCell>
                <mxCell id="lE66irbnl2GG9pVaWtyq-15" style="edgeStyle=orthogonalEdgeStyle;rounded=0;orthogonalLoop=1;jettySize=auto;html=1;endArrow=block;endFill=0;endSize=12;entryX=0.253;entryY=1.03;entryDx=0;entryDy=0;entryPerimeter=0;" parent="1" source="lE66irbnl2GG9pVaWtyq-6" target="lE66irbnl2GG9pVaWtyq-5" edge="1">
                    <mxGeometry relative="1" as="geometry">
                        <mxPoint x="310" y="-670" as="targetPoint"/>
                        <Array as="points">
                            <mxPoint x="240" y="-650"/>
                            <mxPoint x="311" y="-650"/>
                        </Array>
                    </mxGeometry>
                </mxCell>
                <mxCell id="lE66irbnl2GG9pVaWtyq-14" style="edgeStyle=orthogonalEdgeStyle;rounded=0;orthogonalLoop=1;jettySize=auto;html=1;endSize=12;endArrow=block;endFill=0;entryX=0.75;entryY=1.04;entryDx=0;entryDy=0;entryPerimeter=0;" parent="1" source="lE66irbnl2GG9pVaWtyq-11" target="lE66irbnl2GG9pVaWtyq-5" edge="1">
                    <mxGeometry relative="1" as="geometry">
                        <mxPoint x="390" y="-670" as="targetPoint"/>
                        <Array as="points">
                            <mxPoint x="470" y="-650"/>
                            <mxPoint x="390" y="-650"/>
                        </Array>
                    </mxGeometry>
                </mxCell>
                <mxCell id="cSdXtgX57WLTUIetgUi0-35" value="Line" style="swimlane;fontStyle=1;align=center;verticalAlign=top;childLayout=stackLayout;horizontal=1;startSize=26;horizontalStack=0;resizeParent=1;resizeParentMax=0;resizeLast=0;collapsible=1;marginBottom=0;fillColor=none;" parent="1" vertex="1">
                    <mxGeometry x="600" y="-800" width="210" height="200" as="geometry"/>
                </mxCell>
                <mxCell id="cSdXtgX57WLTUIetgUi0-36" value="+ point_1: Point&#10;+ point_2: Point&#10;+ line_id: int&#10;+ line_count: int" style="text;strokeColor=none;fillColor=none;align=left;verticalAlign=top;spacingLeft=4;spacingRight=4;overflow=hidden;rotatable=0;points=[[0,0.5],[1,0.5]];portConstraint=eastwest;" parent="cSdXtgX57WLTUIetgUi0-35" vertex="1">
                    <mxGeometry y="26" width="210" height="64" as="geometry"/>
                </mxCell>
                <mxCell id="cSdXtgX57WLTUIetgUi0-37" value="" style="line;strokeWidth=1;fillColor=none;align=left;verticalAlign=middle;spacingTop=-1;spacingLeft=3;spacingRight=3;rotatable=0;labelPosition=right;points=[];portConstraint=eastwest;" parent="cSdXtgX57WLTUIetgUi0-35" vertex="1">
                    <mxGeometry y="90" width="210" height="8" as="geometry"/>
                </mxCell>
                <mxCell id="cSdXtgX57WLTUIetgUi0-38" value="+ __eq__(Line): bool&#10;+ __lt__(Point): bool&#10;+ get_intersection_point(Line): Point&#10;+ do_intersect(Line): bool&#10;+ compute_orientation(Point): int&#10;- _get_higher_point(): Point" style="text;strokeColor=none;fillColor=none;align=left;verticalAlign=top;spacingLeft=4;spacingRight=4;overflow=hidden;rotatable=0;points=[[0,0.5],[1,0.5]];portConstraint=eastwest;" parent="cSdXtgX57WLTUIetgUi0-35" vertex="1">
                    <mxGeometry y="98" width="210" height="102" as="geometry"/>
                </mxCell>
                <mxCell id="lE66irbnl2GG9pVaWtyq-2" value="IntersectionFinder" style="swimlane;fontStyle=1;align=center;verticalAlign=top;childLayout=stackLayout;horizontal=1;startSize=26;horizontalStack=0;resizeParent=1;resizeParentMax=0;resizeLast=0;collapsible=1;marginBottom=0;fillColor=none;" parent="1" vertex="1">
                    <mxGeometry x="270" y="-780" width="160" height="100" as="geometry"/>
                </mxCell>
                <mxCell id="lE66irbnl2GG9pVaWtyq-3" value="+ lines_list: &lt;Line&gt;" style="text;strokeColor=none;fillColor=none;align=left;verticalAlign=top;spacingLeft=4;spacingRight=4;overflow=hidden;rotatable=0;points=[[0,0.5],[1,0.5]];portConstraint=eastwest;" parent="lE66irbnl2GG9pVaWtyq-2" vertex="1">
                    <mxGeometry y="26" width="160" height="26" as="geometry"/>
                </mxCell>
                <mxCell id="lE66irbnl2GG9pVaWtyq-4" value="" style="line;strokeWidth=1;fillColor=none;align=left;verticalAlign=middle;spacingTop=-1;spacingLeft=3;spacingRight=3;rotatable=0;labelPosition=right;points=[];portConstraint=eastwest;" parent="lE66irbnl2GG9pVaWtyq-2" vertex="1">
                    <mxGeometry y="52" width="160" height="8" as="geometry"/>
                </mxCell>
                <mxCell id="lE66irbnl2GG9pVaWtyq-5" value="+ initialize(): void&#10;+ execute(): int" style="text;strokeColor=none;fillColor=none;align=left;verticalAlign=top;spacingLeft=4;spacingRight=4;overflow=hidden;rotatable=0;points=[[0,0.5],[1,0.5]];portConstraint=eastwest;fontStyle=2" parent="lE66irbnl2GG9pVaWtyq-2" vertex="1">
                    <mxGeometry y="60" width="160" height="40" as="geometry"/>
                </mxCell>
                <mxCell id="lE66irbnl2GG9pVaWtyq-6" value="LineSweep" style="swimlane;fontStyle=1;align=center;verticalAlign=top;childLayout=stackLayout;horizontal=1;startSize=26;horizontalStack=0;resizeParent=1;resizeParentMax=0;resizeLast=0;collapsible=1;marginBottom=0;fillColor=none;" parent="1" vertex="1">
                    <mxGeometry x="150" y="-620" width="180" height="60" as="geometry"/>
                </mxCell>
                <mxCell id="lE66irbnl2GG9pVaWtyq-7" value="+ events_queue: EventsQueue" style="text;strokeColor=none;fillColor=none;align=left;verticalAlign=top;spacingLeft=4;spacingRight=4;overflow=hidden;rotatable=0;points=[[0,0.5],[1,0.5]];portConstraint=eastwest;" parent="lE66irbnl2GG9pVaWtyq-6" vertex="1">
                    <mxGeometry y="26" width="180" height="26" as="geometry"/>
                </mxCell>
                <mxCell id="lE66irbnl2GG9pVaWtyq-8" value="" style="line;strokeWidth=1;fillColor=none;align=left;verticalAlign=middle;spacingTop=-1;spacingLeft=3;spacingRight=3;rotatable=0;labelPosition=right;points=[];portConstraint=eastwest;" parent="lE66irbnl2GG9pVaWtyq-6" vertex="1">
                    <mxGeometry y="52" width="180" height="8" as="geometry"/>
                </mxCell>
                <mxCell id="lE66irbnl2GG9pVaWtyq-11" value="BruteForce" style="swimlane;fontStyle=1;align=center;verticalAlign=top;childLayout=stackLayout;horizontal=1;startSize=26;horizontalStack=0;resizeParent=1;resizeParentMax=0;resizeLast=0;collapsible=1;marginBottom=0;fillColor=none;" parent="1" vertex="1">
                    <mxGeometry x="380" y="-620" width="180" height="34" as="geometry"/>
                </mxCell>
                <mxCell id="lE66irbnl2GG9pVaWtyq-13" value="" style="line;strokeWidth=1;fillColor=none;align=left;verticalAlign=middle;spacingTop=-1;spacingLeft=3;spacingRight=3;rotatable=0;labelPosition=right;points=[];portConstraint=eastwest;" parent="lE66irbnl2GG9pVaWtyq-11" vertex="1">
                    <mxGeometry y="26" width="180" height="8" as="geometry"/>
                </mxCell>
                <mxCell id="cSdXtgX57WLTUIetgUi0-31" value="Point" style="swimlane;fontStyle=1;align=center;verticalAlign=top;childLayout=stackLayout;horizontal=1;startSize=26;horizontalStack=0;resizeParent=1;resizeParentMax=0;resizeLast=0;collapsible=1;marginBottom=0;fillColor=none;" parent="1" vertex="1">
                    <mxGeometry x="910" y="-800" width="200" height="178" as="geometry"/>
                </mxCell>
                <mxCell id="cSdXtgX57WLTUIetgUi0-32" value="+ coord_x: float&#10;+ coord_y: float&#10;+ point_id: int&#10;+ point_count: int&#10;+ which_line: int" style="text;strokeColor=none;fillColor=none;align=left;verticalAlign=top;spacingLeft=4;spacingRight=4;overflow=hidden;rotatable=0;points=[[0,0.5],[1,0.5]];portConstraint=eastwest;" parent="cSdXtgX57WLTUIetgUi0-31" vertex="1">
                    <mxGeometry y="26" width="200" height="84" as="geometry"/>
                </mxCell>
                <mxCell id="cSdXtgX57WLTUIetgUi0-33" value="" style="line;strokeWidth=1;fillColor=none;align=left;verticalAlign=middle;spacingTop=-1;spacingLeft=3;spacingRight=3;rotatable=0;labelPosition=right;points=[];portConstraint=eastwest;" parent="cSdXtgX57WLTUIetgUi0-31" vertex="1">
                    <mxGeometry y="110" width="200" height="8" as="geometry"/>
                </mxCell>
                <mxCell id="cSdXtgX57WLTUIetgUi0-34" value="+ __eq__(Point, float): bool&#10;+ _is_equal(float, float, float): bool&#10;+ __lt__(Point): bool" style="text;strokeColor=none;fillColor=none;align=left;verticalAlign=top;spacingLeft=4;spacingRight=4;overflow=hidden;rotatable=0;points=[[0,0.5],[1,0.5]];portConstraint=eastwest;" parent="cSdXtgX57WLTUIetgUi0-31" vertex="1">
                    <mxGeometry y="118" width="200" height="60" as="geometry"/>
                </mxCell>
                <mxCell id="lE66irbnl2GG9pVaWtyq-16" style="edgeStyle=orthogonalEdgeStyle;rounded=0;orthogonalLoop=1;jettySize=auto;html=1;entryX=0.295;entryY=-0.008;entryDx=0;entryDy=0;entryPerimeter=0;endArrow=diamond;endFill=1;endSize=12;" parent="1" source="lE66irbnl2GG9pVaWtyq-7" target="cSdXtgX57WLTUIetgUi0-60" edge="1">
                    <mxGeometry relative="1" as="geometry"/>
                </mxCell>
                <mxCell id="lE66irbnl2GG9pVaWtyq-17" value="1" style="edgeLabel;html=1;align=center;verticalAlign=middle;resizable=0;points=[];" parent="lE66irbnl2GG9pVaWtyq-16" vertex="1" connectable="0">
                    <mxGeometry x="-0.7014" y="-2" relative="1" as="geometry">
                        <mxPoint as="offset"/>
                    </mxGeometry>
                </mxCell>
                <mxCell id="1_Q9ir36IiWx2A1ji0LD-3" style="edgeStyle=orthogonalEdgeStyle;rounded=0;orthogonalLoop=1;jettySize=auto;html=1;entryX=-0.006;entryY=0.861;entryDx=0;entryDy=0;entryPerimeter=0;endArrow=oval;endFill=1;" edge="1" parent="1" source="1_Q9ir36IiWx2A1ji0LD-1" target="cSdXtgX57WLTUIetgUi0-32">
                    <mxGeometry relative="1" as="geometry">
                        <Array as="points">
                            <mxPoint x="890" y="-702"/>
                        </Array>
                    </mxGeometry>
                </mxCell>
                <mxCell id="1_Q9ir36IiWx2A1ji0LD-1" value="&lt;font style=&quot;font-size: 8px&quot;&gt;&quot;Pointer&quot; to the line which the Point is part of. Doesn't work for one point being part of multiple lines&lt;/font&gt;" style="shape=note;whiteSpace=wrap;html=1;size=14;verticalAlign=top;align=left;spacingTop=-6;" vertex="1" parent="1">
                    <mxGeometry x="860" y="-600" width="180" height="46" as="geometry"/>
                </mxCell>
            </root>
        </mxGraphModel>
    </diagram>
</mxfile>